<?xml version="1.0" encoding="utf-8"?>
<!-- Generator: Adobe Illustrator 21.0.2, SVG Export Plug-In . SVG Version: 6.00 Build 0)  -->
<svg version="1.1" id="Layer_1" xmlns="http://www.w3.org/2000/svg" xmlns:xlink="http://www.w3.org/1999/xlink" x="0px" y="0px"
	 viewBox="0 0 30.5 36.3" style="enable-background:new 0 0 30.5 36.3;" xml:space="preserve">
<style type="text/css">
	.st0{fill:#1AB798;}
</style>
<g>
	<g>
		<path class="st0" d="M15.1,13.9h-3.8c-0.3,0-0.4,0.4-0.4,0.8v1H6.8c-5.7,0-6.8,3-6.8,4.8v10.8c0.1,0.4,0.5,0.6,0.8,0.6h2.6v3.9
			c0,0.3,0.3,0.6,0.6,0.6c0.3,0,0.6-0.3,0.6-0.6v-3.9h2.2c0.3,0,0.6-0.2,0.7-0.6v-6.9H11v0.9c0,0.3,0.1,0.8,0.4,0.8h3.8
			c3.3-0.1,6-2.9,5.8-6.3C20.8,16.6,18.3,14,15.1,13.9z M6.3,30.6H1.1V20.4c0-2.3,1.7-3.5,5.2-3.6V30.6z M11,23.1H7.5v-6.3H11V23.1z
			 M15.1,24.9h-3v-9.8h3c2.7,0.1,4.8,2.4,4.7,5.1C19.7,22.7,17.7,24.8,15.1,24.9z"/>
	</g>
</g>
<g>
	<g>
		<path class="st0" d="M23.7,1.7h-4.1v-1c0-0.3-0.1-0.8-0.4-0.8h-3.8c-3.2,0.1-5.7,2.7-5.8,5.8c-0.1,3.3,2.5,6.2,5.8,6.3h3.8
			c0.3,0,0.4-0.5,0.4-0.8v-0.9H23v6.9c0,0.3,0.3,0.6,0.7,0.6h2.2v12.5c0,0.3,0.3,0.6,0.6,0.6c0.3,0,0.6-0.3,0.6-0.6V17.9h2.6
			c0.4,0,0.7-0.2,0.8-0.6V6.5C30.5,4.7,29.4,1.7,23.7,1.7z M18.4,11h-3c-2.5-0.1-4.6-2.1-4.7-4.7c-0.1-2.7,2-5,4.7-5.1h3V11z
			 M23,9.2h-3.5V2.9H23V9.2z M29.4,16.7h-5.2V2.9c3.5,0.1,5.2,1.3,5.2,3.6V16.7z"/>
	</g>
</g>
</svg>
