<?xml version="1.0" encoding="utf-8"?>
<!-- Generator: Adobe Illustrator 21.0.2, SVG Export Plug-In . SVG Version: 6.00 Build 0)  -->
<svg version="1.1" id="Layer_1" xmlns="http://www.w3.org/2000/svg" xmlns:xlink="http://www.w3.org/1999/xlink" x="0px" y="0px"
	 viewBox="0 0 28 32" style="enable-background:new 0 0 28 32;" xml:space="preserve">
<style type="text/css">
	.st0{fill:#FFFFFF;}
</style>
<path id="icon-2" class="st0" d="M26,10c-1.1,0-2,0.9-2,2v8c0,1.1,0.9,2,2,2s2-0.9,2-2v-8C28,10.9,27.1,10,26,10z M2,10
	c-1.1,0-2,0.9-2,2v8c0,1.1,0.9,2,2,2s2-0.9,2-2v-8C4,10.9,3.1,10,2,10z M5,23c0,1.7,1.3,3,3,3h1v4c0,1.1,0.9,2,2,2s2-0.9,2-2v-4h2v4
	c0,1.1,0.9,2,2,2s2-0.9,2-2v-4h1c1.7,0,3-1.3,3-3V12H5V23z M17.7,2.8L19,0.4C19,0.2,19,0.1,18.9,0c0,0,0,0,0,0
	c-0.1-0.1-0.3,0-0.3,0.1c0,0,0,0,0,0l-1.3,2.5c-2.1-0.8-4.4-0.8-6.5,0L9.5,0.1C9.4,0,9.3,0,9.1,0c0,0,0,0,0,0C9,0.1,9,0.2,9,0.4
	c0,0,0,0,0,0l1.3,2.4c-2.9,1.3-4.9,4-5.2,7.2h17.9C22.6,6.8,20.6,4.1,17.7,2.8z M10,8.5C9.2,8.5,8.6,7.8,8.6,7S9.2,5.6,10,5.6
	s1.4,0.6,1.4,1.4l0,0C11.4,7.8,10.8,8.5,10,8.5z M18,8.5c-0.8,0-1.4-0.6-1.4-1.4s0.6-1.4,1.5-1.4s1.4,0.6,1.4,1.4l0,0
	C19.4,7.8,18.8,8.5,18,8.5z"/>
</svg>
