<?xml version="1.0" encoding="utf-8"?>
<!-- Generator: Adobe Illustrator 21.0.2, SVG Export Plug-In . SVG Version: 6.00 Build 0)  -->
<svg version="1.1" id="Layer_1" xmlns="http://www.w3.org/2000/svg" xmlns:xlink="http://www.w3.org/1999/xlink" x="0px" y="0px"
	 viewBox="0 0 36 34.8" style="enable-background:new 0 0 36 34.8;" xml:space="preserve">
<style type="text/css">
	.st0{fill:#1AB798;}
</style>
<path class="st0" d="M14.5,34.8h15.1c1.3,0.1,2.5-0.4,3.3-1.4c0.6-0.9,0.9-2.1,0.8-3.2c0.8-1,1.1-2.2,1.1-3.4c0-0.5-0.1-0.9-0.2-1.4
	c0.7-0.8,1-1.8,1.1-2.8c0.1-0.8-0.1-1.6-0.4-2.3c0.5-0.7,0.7-1.6,0.7-2.4c0.1-3.4-3.1-4.9-5.2-5.1l-4.6,0.1c0.1-0.2,0.2-0.3,0.3-0.5
	c1.1-1.5,2-3.2,2.5-5.1c1.4-4-2.1-6.8-2.2-6.9l-0.2-0.2l-0.1,0C26.1,0.1,25.6,0,25.2,0c-0.5,0-1.1,0.1-1.5,0.4
	c-1,0.7-1.7,1.9-1.7,3.1c-0.3,2.7-2.6,5.1-3.9,6.1c-0.2,0.1-0.3,0.3-0.4,0.3c-1,1.1-1.7,2.3-2.2,3.7l-0.3,0.6
	c-0.5,0.9-1.2,1.8-2,2.5c-0.3,0-0.8,0-1.1,0c-0.1-0.8-0.8-1.5-1.7-1.6H2.3C1,15.2,0,16.2,0,17.5v15.2c0.1,1.2,1.1,2.2,2.3,2.1
	c0,0,0,0,0,0L14.5,34.8L14.5,34.8z M11.3,17.9l0.4,0c0.6,0,1.4,0,1.8,0l0.2,0l0.2-0.1c0.9-0.9,1.8-1.9,2.4-3l0.3-0.6
	c0.5-1.2,1.1-2.3,2-3.3c0.1-0.1,0.2-0.2,0.4-0.3c0.4-0.3,3.9-3.1,4.3-6.9c0-0.9,0.4-1.7,1.1-2.2c0.3-0.2,0.6-0.2,0.9-0.2
	c0.3,0,0.5,0,0.8,0.1l0.1,0.1c0.3,0.3,2.9,2.5,1.8,5.6c-0.5,1.7-1.3,3.3-2.4,4.7c-0.5,0.5-0.7,1.3-0.5,2l0.1,0.3l0.5,0l5.1-0.1
	c1.4,0.1,4.2,1.1,4.1,3.9c0,0.7-0.2,1.5-0.7,2.1l-0.2,0.3l0.2,0.3c0.4,0.6,0.5,1.3,0.4,2c0,0.9-0.4,1.7-1,2.4l-0.3,0.3l0.2,0.4
	c0.2,0.4,0.3,0.8,0.3,1.2c0.1,1-0.3,2.1-0.9,2.8l-0.2,0.2l0.1,0.3c0.2,0.9,0,1.8-0.5,2.6c-0.6,0.6-1.5,1-2.4,0.9c-0.3,0-0.7,0-1.2,0
	l-4,0H11V17.2c0,0.1,0.1,0.2,0.1,0.3L11.3,17.9z M1.2,32.7V17.5c0-0.6,0.5-1.2,1.2-1.2h7.5v17.4H2.3C1.7,33.7,1.2,33.3,1.2,32.7
	L1.2,32.7z"/>
</svg>
