<?xml version="1.0" encoding="utf-8"?>
<!-- Generator: Adobe Illustrator 21.0.2, SVG Export Plug-In . SVG Version: 6.00 Build 0)  -->
<svg version="1.1" id="Layer_1" xmlns="http://www.w3.org/2000/svg" xmlns:xlink="http://www.w3.org/1999/xlink" x="0px" y="0px"
	 viewBox="0 0 42 34" style="enable-background:new 0 0 42 34;" xml:space="preserve">
<style type="text/css">
	.st0{fill:#FFFFFF;}
</style>
<path class="st0" d="M33.3,11.4C33.2,5.1,28,0,21.6,0c-2.9,0-5.6,1-7.8,2.9c-1.9,1.7-3.2,3.9-3.7,6.3c0,0-0.1,0-0.1,0
	c-5.5,0-10,4.4-10,9.8c0,5.4,4.5,9.8,10,9.8h3.7c0.5,0,0.9-0.4,0.9-0.9c0-0.5-0.4-0.9-0.9-0.9H10c-4.5,0-8.2-3.6-8.2-8.1
	c0-4.4,3.7-8.1,8.2-8.1c0.2,0,0.5,0,0.8,0c0.5,0,0.9-0.3,1-0.8c0.3-2.3,1.5-4.5,3.3-6c1.8-1.6,4.1-2.4,6.6-2.4c5.5,0,10,4.4,10,9.8
	c0,0.2,0,0.7,0,0.7c0,0.3,0.1,0.5,0.3,0.7c0.2,0.2,0.5,0.3,0.7,0.2c0.2,0,0.5,0,0.7,0c3.9,0,7,3.1,7,7c0,3.8-3.2,7-7,7h-4
	c-0.5,0-0.9,0.4-0.9,0.9c0,0.5,0.4,0.9,0.9,0.9h4c4.9,0,8.8-3.9,8.8-8.7C42,15.4,38.1,11.5,33.3,11.4z M21.6,5.9
	c0.5,0,0.9-0.4,0.9-0.9c0-0.5-0.4-0.9-0.9-0.9c-3.7,0-7,2.8-7.5,6.4c-0.1,0.5,0.3,0.9,0.8,1c0.5,0.1,0.9-0.3,1-0.8
	C16.3,8,18.7,5.9,21.6,5.9z M24.4,29.4l-2.2,1.9V20.4c0-0.5-0.4-0.9-0.9-0.9c-0.5,0-0.9,0.4-0.9,0.9v10.9l-2.2-1.9
	c-0.4-0.3-0.9-0.3-1.3,0.1c-0.3,0.4-0.3,0.9,0.1,1.2l3.3,2.9c0.3,0.2,0.6,0.4,1,0.4c0.4,0,0.7-0.1,1-0.4l3.3-2.9
	c0.4-0.3,0.4-0.9,0.1-1.2C25.4,29.1,24.8,29.1,24.4,29.4z"/>
</svg>
