<?xml version="1.0" encoding="utf-8"?>
<!-- Generator: Adobe Illustrator 21.0.2, SVG Export Plug-In . SVG Version: 6.00 Build 0)  -->
<svg version="1.1" id="Layer_1" xmlns="http://www.w3.org/2000/svg" xmlns:xlink="http://www.w3.org/1999/xlink" x="0px" y="0px"
	 viewBox="0 0 36 36" style="enable-background:new 0 0 36 36;" xml:space="preserve">
<style type="text/css">
	.st0{fill:#1AB798;}
</style>
<path class="st0" d="M18,0C8.1,0,0,8.1,0,18c0,9.9,8.1,18,18,18c9.9,0,18-8.1,18-18C36,8.1,27.9,0,18,0z M9.2,32.4
	c0.6-0.3,1.4-0.3,2.6-0.3h1.7c0.2,0,0.4-0.1,0.5-0.2l1.9-2.9c0.1-0.1,0.1-0.2,0.1-0.4c0.6,0.3,1.3,0.5,2,0.5c0.7,0,1.4-0.2,2.1-0.5
	c0,0.1,0,0.3,0.1,0.4l2,2.9c0.1,0.1,0.3,0.2,0.5,0.2h2c1.1,0,1.7,0,2.2,0.3c-2.6,1.6-5.6,2.5-8.9,2.5C14.8,34.9,11.7,34,9.2,32.4z
	 M23.7,13.4c0.6,2.2,1.2,6-0.1,7.1c-0.1,0.1-0.2,0.3-0.2,0.4c0,3.1-2.6,7.1-5.4,7.1c-2.9,0-5.4-4-5.4-7.1c0-0.1,0-0.2,0-0.2
	c-1.6-3.7-0.3-7.2-0.2-7.2c0-0.1,0-0.1,0-0.2c0-1.9,0.3-3.3,4.5-3.3c0.1,0,0.2,0,0.3-0.1c1.2-0.7,2.3-1.1,3.4-1.1
	c1.2,0,2.2,0.5,2.8,1.4c0.6,0.9,0.7,1.9,0.4,2.9C23.6,13.2,23.6,13.3,23.7,13.4z M27.9,31.7C27,31,26,31,24.6,31h-1.7l-1.8-2.6
	c-0.1-0.1-0.2-0.2-0.3-0.2c2.1-1.5,3.6-4.4,3.7-7c1.8-1.9,0.6-6.8,0.3-7.9c0.4-1.3,0.2-2.7-0.5-3.8c-0.8-1.2-2.2-1.9-3.7-1.9
	c-1.2,0-2.5,0.4-3.8,1.2c-4.7,0-5.5,2.1-5.5,4.3c-0.2,0.7-1.4,4.1,0.2,7.9c0,2.6,1.6,5.6,3.8,7.1c-0.1,0-0.2,0.1-0.3,0.2L13.2,31
	h-1.4c-1.5,0-2.6,0-3.7,0.7c-4.2-3.1-7-8.1-7-13.7C1.1,8.7,8.7,1.1,18,1.1c9.3,0,16.9,7.6,16.9,16.9C34.9,23.6,32.1,28.6,27.9,31.7z
	"/>
</svg>
